<svg id="Layer_1" data-name="Layer 1" xmlns="http://www.w3.org/2000/svg" viewBox="0 0 319.9 382.67"><defs><style>.cls-1{fill:#d81919;}.cls-2{fill:#111010;}</style></defs><path class="cls-1" d="M260.5,63.9l-8,8.1-13.2-1.2c-12.8-1.2-22.2-.7-41.9,1.8-3.9.6-4.4.3-11-5.7-3.8-3.5-7.8-7.1-9-8.1-2-1.8-2.4-1.7-16,4.3-7.6,3.3-14.7,6.3-15.6,6.6-1.4.4-1.8,1.7-1.9,5.2-.1,2.5-.2,5.5-.3,6.6s-.3,4.7-.4,8.1l-.2,6-8.1,6.4a154.51,154.51,0,0,0-26.4,27.5l-5.4,7.3-12,.7c-7,.4-12.4,1.2-12.9,1.9s-2.1,4.5-3.7,8.6-3.6,9.3-4.6,11.5-2.3,5.7-3,7.8L65.6,171l8.6,8.8,8.7,8.7-1.1,9c-1.2,10.4-.5,34.6,1.2,42.3,1.4,6.2,1.4,6.1-8.4,16.7C71,260.3,68,264,68,264.6a51.64,51.64,0,0,0,3.1,8c1.7,3.8,3.9,8.7,4.8,10.9s2.6,5.9,3.6,8.2l1.8,4.3h24.5l5.5,6.7c10.1,12.4,20.5,22.4,30.9,29.4l5.6,3.9.7,12c.4,6.8,1.2,12.4,1.9,12.9,1.5,1.2,29.1,12.1,30.7,12.1.7,0,5.2-3.8,10-8.5,8.3-8.1,8.8-8.5,12-7.8,5.6,1.3,42.8.9,48.7-.5l5.4-1.2,9.4,8.4,9.4,8.4,16-7.2,16-7.1V333.2l9-7.1c9.3-7.5,17-15.6,26.2-27.6l5.4-7,11.8-.6c6.5-.4,12.2-1.1,12.6-1.5.8-.8,3.2-6.9,10.3-25.6l2.2-5.7-8.9-9c-6.7-6.9-8.7-9.5-8.1-10.8,1.5-3.8,1.7-34.7.3-45.2l-1.4-10.5,3.5-4c1.9-2.3,5.6-6.4,8.3-9.1l4.8-5L377.1,149c-5.9-13.3-7.3-15.5-9.3-15.7-1.2-.1-7-.5-12.8-.9l-10.5-.6-5-6.5c-6.4-8.3-19.2-20.6-28.7-27.6l-7.6-5.6-.7-12.4-.7-12.4-4.6-1.5c-2.6-.9-8.5-3.2-13.2-5.2C269.8,54.5,269.9,54.5,260.5,63.9Zm-16,30.5c9.1,1.6,20,4.2,23,5.5,22.4,10.3,30.3,15.2,42.7,26.9,9.9,9.3,24,28.6,22.2,30.4-.8.9-9.9-.4-10.6-1.5-.4-.7-1.2-.6-2.2.2-1.3,1.1-2,1.1-4.1-.3-2.3-1.5-2.8-1.5-5.5-.1-2.5,1.3-7.5,1.5-32.7,1.3l-29.7-.3-.7-2.5-.6-2.5-1.2,2.8c-.6,1.6-1.5,2.6-2,2.3s-1.4-4.5-2.1-9.2c-1.2-8.3-1.1-8.8,1-13.2a32.67,32.67,0,0,0,2.8-9.4c.3-3,.9-4.7,1.6-4.5,1.7.5,1.8,7.4.3,14.7-.8,3.6-1.2,6.9-.9,7.4s2.3-1,4.5-3.2l4-4.1-1.8-7.8c-2.7-11.7-4.2-14.9-9.7-19.8-8.8-7.9-15.8-8.2-25-1.2a25.65,25.65,0,0,0-10.5,19.1c-.4,3.8-1.2,7.1-2,7.7-1.1,1-1,1.6.8,3.5s2.9,2.2,6.3,1.8c2.7-.4,4.7-.1,6,.8,1.7,1.4,1.7,1.7.2,6.1a29.68,29.68,0,0,0-1.6,6.8c0,2.8-2.3,1.9-3.1-1.2-.5-2-.7-1.8-1.3,1.9l-.8,4.3-30.6-.3c-28.3-.3-30.9-.5-33.9-2.2-3.1-1.9-3.3-1.9-5.2-.2s-2.3,1.7-3.7.5-1.7-1-2.6.4a2.22,2.22,0,0,1-2.8,1.2,2.54,2.54,0,0,0-2.5.4c-.6,1-10.1.8-11.2-.2-.8-.8,4.1-8.9,9.6-16.2,12.8-16.7,29.3-29.3,51.5-39C197.4,94.1,224.6,91.1,244.5,94.4ZM132.9,165.7c1,1.7,1,1.7,1.1,0a1.77,1.77,0,0,1,2-1.7c1.4,0,2,.7,2,2.1,0,1.1,1.9,4.2,4.1,6.9l4.2,4.9-2.1,4.8a33.71,33.71,0,0,0-2.1,9.8c-.1,7-2.1,32.6-2.7,34.7-.5,1.6,1.3,4.7,9.4,16.6l4.3,6.3,5.7-7.4c5.2-6.8,11.1-12.7,12.6-12.7,1.7,0,.2,3-2.9,6-1.9,1.8-3.3,3.5-3.1,3.8s3.8-1.7,7.9-4.2,8-4.6,8.5-4.6c1.6,0,8.7,9.1,10.9,14,1.2,2.5,4,9.2,6.3,15,7.2,18.2,8.1,20,9.9,19,.9-.4,5.6-4,10.5-7.9s9.5-7.1,10.2-7.1,3.4,2.2,6,5,5.3,5,6.1,5,5.2-2.1,9.8-4.7l8.4-4.6,2.5-7.9c2-6.4,3.6-9.2,8.7-15.3,3.5-4.1,6.8-7.5,7.4-7.5s1.8,1.5,2.7,3.2c1.4,2.9,2.9,3.8,11.7,7.2,5.6,2.1,10.4,3.7,10.6,3.4s-3.9-4.6-9.4-9.7c-7.2-6.7-10-10-10.5-12.3-.3-1.7-.5-3.3-.3-3.4.5-.5,10.1,6.6,11,8.1a2.78,2.78,0,0,0,1.8,1.5,10.86,10.86,0,0,1,4,2.1c3.4,2.4,3.9,5.9.9,5.9-1.6,0-1,1,3,4.5,2.8,2.5,5.5,4.3,6,4s1.8-4.9,3-10.3,2.8-11.9,3.6-14.6c1.3-4.7,2.1-25.6.8-24.4-.3.3-1,3.8-1.5,7.7-1.1,7.6-6,20.1-8,20.1-.7,0-.9-.9-.5-2.3.3-1.2,1.2-8.1,2.1-15.2s2-15.5,2.6-18.5,1.2-6.4,1.5-7.6,1.9-4.1,3.8-6.6c2.4-3.1,3.3-5.2,2.9-6.7-.4-1.7-.1-2.1,1.9-2.1a6.65,6.65,0,0,0,4.3-2c1.3-1.4,3.1-2,6-2,4.1,0,4.3.2,6.3,4.7,7.3,17.1,10.1,37,8.2,57.9-.6,7-1.3,13.1-1.6,13.5s-1.6,4.6-2.9,9.4a118.86,118.86,0,0,1-6.4,16.4,75.9,75.9,0,0,0-4.6,11.1c-.5,2.2-2.9,5.5-7,9.7-3.5,3.4-6.6,7.1-7,8.2s-4.5,5.1-9.3,9.1c-18.4,15.4-34.4,23.6-56.7,29.2-12.9,3.2-36.7,3.2-50.7,0a122.47,122.47,0,0,1-42.5-17.9c-17.5-11.4-34.4-30.8-42.2-48.3-2.4-5.2-4.7-10.4-5.2-11.5s-2.1-6.5-3.5-12c-3.2-12.1-4.4-35.4-2.4-47,1.7-9.8,4.8-21,7.6-27.3l2.3-5.2h8.5C130.4,164,132.1,164.3,132.9,165.7Zm37.1-.8c0,.5-1.1,1.6-2.4,2.4-4.3,2.9-5.7,7.5-5.4,18.6.3,8.3,0,10.3-1.4,11.7-1.6,1.7-1.8,1.6-2.9-1.2a46.07,46.07,0,0,1-1.6-9.1c-.5-5.3-.2-7.2,2.3-12.9,2-4.8,2.5-6.9,1.6-7.2a2,2,0,0,1-1.2-1.8c0-1,1.4-1.4,5.5-1.4C167.5,164,170,164.4,170,164.9Zm39.5.1c.3.5-1.4,3-3.8,5.4l-4.5,4.4-7.4-1.4c-12.9-2.5-12.2-2.8-21.3,10-2.2,3.1-4.3,5.6-4.8,5.6-1.6,0-1.9-3.2-.6-9.6,1.8-9.3,4-10.6,17.8-11.4,5.9-.4,9.6-.8,8.4-.8-3-.3-5.3-1.2-5.3-2.3S208.7,163.8,209.5,165Zm66-.1c.3.5-2.1,1.5-5.2,2.3l-5.8,1.3,10,.5c10,.6,12.9,1.4,15.6,4.6,1.9,2.3,4.1,13.6,2.9,14.8-.5.5-3.7-2.1-8.2-6.8l-7.3-7.6h-8.3c-7.8,0-8.5-.2-13.5-3.6-2.8-2-5.4-3.8-5.6-4s0-.7.4-1.3C251.3,163.7,274.6,163.6,275.5,164.9Zm26.5.5a2.65,2.65,0,0,1-2,2.1c-1.1.3-2,1-2,1.5,0,1.6,6.1,12.3,7.7,13.5,1.4,1.1,1.4,1.7-.9,6.6a69.37,69.37,0,0,0-3.2,7.6c-1,3.3-2.4,2.8-4.1-1.4-1.3-3.1-1.4-4.6-.4-8.6a24.87,24.87,0,0,0,.4-8.5c-.8-4.5-4.8-10-8.1-11.2-4.6-1.8-2.5-3,5.1-3C300.3,164,302,164.3,302,165.4Zm-76,26.8v8.3l-4.3,2.6c-5.5,3.5-20.4,5-24.3,2.4-1.3-.8-2.4-2-2.4-2.4,0-1.3,5.1-2.8,13.5-4.1,3.9-.6,7.9-1.3,9-1.5,1.5-.3,2.6-2.1,4-6.2,2.3-7.1,2.4-7.3,3.6-7.3C225.6,184,226,187.7,226,192.2Zm11.6-1.7c.3,1.4.9,2.5,1.3,2.5s1.5,1.6,2.4,3.5L243,200h11c12.2,0,13.7.8,10.6,5.5-1.6,2.4-2.1,2.5-12,2.5-14.3,0-16-1.5-18-15.8-.5-3.3-.3-4.2.9-4.2C236.3,188,237.2,189.1,237.6,190.5Zm50.6.1c.3.3-.3,3.7-1.4,7.6-2.2,7.7-2,9.3,1.9,18.1,4.1,9.2,1.8,9.2-6.6,0l-7.1-7.8V192.1l4.8-.6c2.6-.4,5.2-.8,5.7-1C287.1,190,287.6,190,288.2,190.6Zm-106.5,1.9c.2.1.7,3.7,1.2,8.1.8,7.4.7,8.1-1.5,11.4a63,63,0,0,1-6.8,7.9c-3.8,3.7-4.6,4.2-5.2,2.8a3.45,3.45,0,0,1,.4-3c.5-.6,2.6-4.2,4.6-7.9,2.8-5.2,3.4-7.2,2.6-8.5-1.7-3-3.9-10.6-3.4-11.5C174,191.1,180.7,191.7,181.7,192.5Zm-35.3,10.8A107.33,107.33,0,0,0,149,214c7.8,26.3,8,27.5,5.9,26.8-1.1-.4-2.8-4.7-7.4-18.3-2.1-6.2-4.4-17.8-4.5-22.4,0-2.7.3-3.1,1.4-2.2C145.1,198.5,146,200.9,146.4,203.3ZM197.6,229c.6,5.2,1.4,11.4,1.8,13.7.6,3.5.5,4.3-.7,4.3-1.7,0-2.7-2.2-6.7-15.4-3.9-12.7-3.9-12.8.7-12.4l3.8.3Zm44.6,5a22.88,22.88,0,0,1,5.4,2.1c.6.5,1.4.6,1.7.3s1.3.1,2.2.9c1.3,1.4,1.3,2.2.3,6.1-1.1,4.3-3.8,6.4-3.8,3.1,0-.8-1.5-2.2-3.2-3.1-6.1-3-11.8-6.9-11.8-8,0-1.6,2.3-3.5,3.7-3A48.11,48.11,0,0,0,242.2,234Zm1.2,16.6,7.8,2.7-.6,4.1c-.9,5.2-2.9,7.5-5,5.7a5.33,5.33,0,0,1-1.3-4.3c.2-2.8-.2-3.1-4.2-4.3-5.5-1.7-10.1-1.6-10.8.2-.4,1.1-.7,1.1-1.7-.2s-1.9-1.4-6.8-.4c-6.2,1.2-6.8,2.1-4.1,5.1,1.5,1.7,1.5,2,.3,2.8-3.4,2.2-5.7-.3-6.7-7.5-.5-4-.4-4.4,1.8-4.9,5.6-1.3,15.3-2.5,16-2a3.27,3.27,0,0,0,2.6-.4,3.64,3.64,0,0,1,3.2-.2C234.8,247.5,239,249.1,243.4,250.6Z" transform="translate(-65.6 -56.37)"/><path d="M142.5,289a5,5,0,0,0,0,3c1.7,2.8,17.6,8.6,27.4,10a40.46,40.46,0,0,1,6.7,1.3c.2.2-.3,1.7-1.1,3.4-1.8,3.7-.8,7.3,2.7,9.7s6.6,1.9,10-1.4c3-3.1,3.1-3.8,1.3-9.8l-.7-2.2H228c37,0,39.2.1,38.5,1.7-2,4.6-1.7,8.2.9,10.7,6.5,6.6,16.9-1.3,12.5-9.6-1.4-2.5.2-3.8,4.6-3.8s16.9-3.7,23.2-6.7c4.2-2.1,5.3-3.1,5.3-5,0-3.5-2.4-3.8-8.8-1-14.6,6.4-12.1,6.2-76.2,6.2H169.5l-7.5-2.4a85.39,85.39,0,0,1-11.2-4.2C146,286.5,143.3,286.5,142.5,289Z" transform="translate(-65.6 -56.37)"/><path class="cls-2" d="M238.3,375.7a2.1,2.1,0,0,0-1.3,1.9c0,1.2-1,1.3-5.2.8a39.14,39.14,0,0,1-7-1.5,14.27,14.27,0,0,0-5.4-.9c-3.5,0-3.6.1-2.1,1.8,2.7,2.9,2.1,4-3.8,6.9-3,1.5-5.5,3.1-5.5,3.5,0,1.8,3.5,2.1,6.2.5,2.4-1.4,5.8-1.4,5.8,0a22.06,22.06,0,0,1-2.5,3.7c-1.4,1.9-2.3,4-2,4.9a1.77,1.77,0,0,1-.4,2.2c-2.3,1.4-1.1,6.1,2.5,9.8,2,2,4,3.7,4.5,3.7a.92.92,0,0,1,.9,1c0,1.6-2.5,1.2-7.8-1.5a28.84,28.84,0,0,0-6.1-2.5c-.6,0-1.6-1.1-2.1-2.5s-1.4-2.5-2-2.5-.8.4-.5,1,.1,1-.4,1-1.1,1.1-1.1,2.4a4.33,4.33,0,0,1-1.1,3.2,2.28,2.28,0,0,0-.6,2.5c.3,1.1.1,1.9-.4,1.9s-.9,1.1-.9,2.5-.4,2.5-1,2.5c-1.3,0-1.3,2.7,0,3.5a2.21,2.21,0,0,0,2.4-.4,3.07,3.07,0,0,1,2.9-.5c1.1.4,2.5-.4,4-2.1,1.9-2.2,3.3-2.8,7.3-3,4.4-.2,6.8.5,14.1,3.8,2.7,1.2,7.3.1,7.3-1.8a11.54,11.54,0,0,0-1.2-4c-1.8-3.9-.4-3.9,3.8.2a38.34,38.34,0,0,0,7.2,5.5,12.51,12.51,0,0,1,5.3,6.3c1.1,2.5,2.4,4.5,2.9,4.5s1,1.1,1,2.5c0,2.8,2.7,3.5,3.6,1a2.68,2.68,0,0,1,2-1.5,2.39,2.39,0,0,0,2-1.5,3,3,0,0,1,2.5-1.5,1.79,1.79,0,0,0,1.9-1.5,1.54,1.54,0,0,1,1.5-1.5c.8,0,1.5-.9,1.5-2.1,0-1.6-.4-1.9-2-1.4-1.4.4-2,.2-1.8-.7s-.9-1.2-4.5-1c-4,.3-5.1,0-6.3-1.7-.9-1.2-2.1-1.8-3-1.4-1.7.6-5.4-2.4-9.6-8.2a31.51,31.51,0,0,0-9.6-7.6c-9.3-5.1-9.2-5.7,2.9-10.4,5.6-2.1,7.1-2.4,9.2-1.4,5,2.3,26.1-3.9,22-6.4-.4-.3-2.6.1-4.8.9-5.3,1.8-8.5,1.8-8.5-.1a1.54,1.54,0,0,1,1.5-1.5c2.3,0,3-4.6,1.1-7.6-2.1-3.1-3.8-3.8-7.1-3a4.41,4.41,0,0,0-3.1,3.1c-.7,2.9-2.4,3.4-2.4.7A5,5,0,0,0,238.3,375.7Z" transform="translate(-65.6 -56.37)"/><path class="cls-1" d="M70.1,384.4c-2.6,2.8-3.7,8.9-2.3,12.7.6,1.5,3.7,4.6,6.9,7.1,5.1,3.9,5.8,4.8,5.8,7.8,0,2.8-.4,3.5-2,3.5s-2.1-.8-2.3-3.8l-.3-3.8-4.2.3-4.2.3.3,4.5c.3,5.3,2.2,7.7,7.4,9,4.8,1.4,11.1-.2,13.3-3.3,1.7-2.4,2-10.2.6-14-.5-1.3-3.4-4.1-6.5-6.1-5.4-3.5-7.6-7.1-6.1-9.5,1.3-2.1,3.6-1.1,4.2,1.9.5,2.7.9,3,4.4,3,3.9,0,3.9,0,3.9-4,0-5.9-2.8-8-10.5-8C73.3,382,72,382.4,70.1,384.4Z" transform="translate(-65.6 -56.37)"/><path class="cls-1" d="M94,402v20h10V406h3.4a10.89,10.89,0,0,0,6-2.1c2.4-1.9,2.6-2.7,2.6-9,0-3.9-.4-7.9-1-8.9-1.4-2.6-6.3-4-14.1-4H94Z" transform="translate(-65.6 -56.37)"/><path class="cls-1" d="M123.7,384.4c-2.1,1.9-2.6,3.6-3.2,10.1-1,10.3-.2,20.8,1.9,23.9,2.2,3.4,8.3,5,13.6,3.6,6.1-1.6,7.3-4.3,7.8-17,.8-18.9-1.3-23-11.6-23C127.4,382,125.8,382.4,123.7,384.4Z" transform="translate(-65.6 -56.37)"/><path class="cls-1" d="M148,402v20h10v-9c0-5,.4-9,.8-9,2.3,0,3.2,3,3.2,10.2V422h8v-9c0-7.7-.3-9.1-1.9-10.2-1.8-1.1-1.8-1.2.2-2.8,1.6-1.3,2.1-2.9,2.1-6.7,0-9.2-3.1-11.3-16-11.3H148Z" transform="translate(-65.6 -56.37)"/><path class="cls-1" d="M174.2,385.7c.2,3,.8,3.8,2.8,4.3l2.5.6.3,15.7.3,15.7H189v-8.3c0-4.6.3-11.8.6-16,.7-7.2.8-7.6,3.3-7.9,2.2-.3,2.6-.8,2.9-4.1l.3-3.7H173.9Z" transform="translate(-65.6 -56.37)"/><path class="cls-1" d="M277,407v17h14.1l-.3-3.3c-.2-2.7-.8-3.3-3-3.5l-2.8-.3V390h-8Z" transform="translate(-65.6 -56.37)"/><path class="cls-1" d="M293,407v17h9V390h-9Z" transform="translate(-65.6 -56.37)"/><path class="cls-1" d="M307,407v17h7.9l.3-7.3c.3-7,.4-7.2,3.1-7.5,2.3-.3,2.7-.8,2.7-3.3s-.3-2.9-3-2.9-3-.3-3-3,.3-3,3.5-3,3.5-.2,3.5-3.5V390H307Z" transform="translate(-65.6 -56.37)"/><path class="cls-1" d="M324,407v17h15v-3.5c0-3.2-.2-3.5-3-3.5s-3-.2-3-4c0-3.6.3-4,2.5-4s2.5-.5,2.5-3-.4-3-2.5-3-2.5-.5-2.5-3c0-2.7.3-3,3-3s3-.3,3-3.5V390H324Z" transform="translate(-65.6 -56.37)"/></svg>